<svg width="640" height="640" viewBox="0 0 640 640" xmlns="http://www.w3.org/2000/svg" fill="none">
  <defs>
    <linearGradient id="lapLid" x1="170" y1="120" x2="474" y2="360" gradientUnits="userSpaceOnUse">
      <stop stop-color="#F2F7FF"/>
      <stop offset="1" stop-color="#A5B9D7"/>
    </linearGradient>
    <linearGradient id="lapInner" x1="190" y1="142" x2="454" y2="330" gradientUnits="userSpaceOnUse">
      <stop stop-color="#0B1327"/>
      <stop offset="1" stop-color="#2A4775"/>
    </linearGradient>
    <radialGradient id="lapGlow" cx="0" cy="0" r="1" gradientUnits="userSpaceOnUse" gradientTransform="translate(362 212) rotate(145) scale(230 160)">
      <stop stop-color="#5CA9FF" stop-opacity="0.45"/>
      <stop offset="1" stop-color="#5CA9FF" stop-opacity="0"/>
    </radialGradient>
    <linearGradient id="lapBase" x1="96" y1="382" x2="544" y2="504" gradientUnits="userSpaceOnUse">
      <stop stop-color="#D8E2F2"/>
      <stop offset="1" stop-color="#A6BAD8"/>
    </linearGradient>
    <filter id="lapShadow" x="64" y="90" width="512" height="438" filterUnits="userSpaceOnUse" color-interpolation-filters="sRGB">
      <feDropShadow dx="0" dy="18" stdDeviation="18" flood-color="#0F172A" flood-opacity="0.28"/>
    </filter>
  </defs>

  <g filter="url(#lapShadow)">
    <rect x="158" y="108" width="324" height="248" rx="20" fill="url(#lapLid)"/>
    <rect x="174" y="124" width="292" height="216" rx="14" fill="#E5EDF9"/>
    <rect x="194" y="144" width="252" height="176" rx="10" fill="url(#lapInner)"/>
    <rect x="194" y="144" width="252" height="176" rx="10" fill="url(#lapGlow)"/>

    <path d="M96 386H544L500 502H140L96 386Z" fill="url(#lapBase)"/>
    <rect x="270" y="400" width="100" height="8" rx="4" fill="#8AA0BF"/>
    <path d="M140 502H500" stroke="#95A7C2" stroke-width="6" stroke-linecap="round"/>
  </g>

  <path d="M220 180C256 150 314 136 386 144" stroke="#FFFFFF" stroke-opacity="0.5" stroke-width="6" stroke-linecap="round"/>
</svg>
